<svg width="121" height="124" viewBox="0 0 121 124" fill="none" xmlns="http://www.w3.org/2000/svg">
<mask id="path-1-inside-1_99_7" fill="white">
<path d="M33.3691 58.527C-37.7467 20.1687 27.593 81.3107 31.0938 92.3557C34.5946 103.401 42.1499 112.588 52.2427 118.073C62.3355 123.558 74.2187 124.934 85.5063 121.926C96.7939 118.917 106.65 111.747 113.097 101.854C119.543 91.961 122.102 80.0782 120.259 68.5912C118.417 57.1042 112.31 46.8634 103.164 39.925C94.0188 32.9866 71.255 -40.1263 70.9534 31.1848C70.6518 102.496 48.6413 38.1711 40.8513 47.0445C40.8513 47.0445 24.8171 10.3567 53.2326 58.0061C81.6481 105.656 65.0327 48.7544 72.3876 47.9141C79.7426 47.0738 87.065 49.0606 92.8846 53.4758C98.7043 57.8909 102.59 64.4075 103.763 71.7171C104.935 79.0267 103.307 86.5881 99.2048 92.8832C95.1028 99.1784 88.8308 103.741 81.6481 105.656C74.4654 107.57 66.9038 106.694 60.4813 103.204C54.0589 99.7137 49.2513 93.8676 47.0236 86.8393C44.7959 79.811 45.3132 72.1208 48.4715 65.3129C48.4715 65.3129 104.485 96.8852 33.3691 58.527Z"/>
<path d="M33.3691 58.527C-37.7467 20.1687 27.593 81.3107 31.0938 92.3557C34.5946 103.401 42.1499 112.588 52.2427 118.073C62.3355 123.558 74.2187 124.934 85.5063 121.926C96.7939 118.917 106.65 111.747 113.097 101.854C119.543 91.961 122.102 80.0782 120.259 68.5912C118.417 57.1042 112.31 46.8634 103.164 39.925C94.0188 32.9866 71.255 -40.1263 70.9534 31.1848C70.6518 102.496 48.6413 38.1711 40.8513 47.0445C40.8513 47.0445 24.8171 10.3567 53.2326 58.0061C81.6481 105.656 65.0327 48.7544 72.3876 47.9141C79.7426 47.0738 87.065 49.0606 92.8846 53.4758C98.7043 57.8909 102.59 64.4075 103.763 71.7171C104.935 79.0267 103.307 86.5881 99.2048 92.8832C95.1028 99.1784 88.8308 103.741 81.6481 105.656C74.4654 107.57 66.9038 106.694 60.4813 103.204C54.0589 99.7137 49.2513 93.8676 47.0236 86.8393C44.7959 79.811 45.3132 72.1208 48.4715 65.3129C48.4715 65.3129 104.485 96.8852 33.3691 58.527Z"/>
</mask>
<path d="M33.3691 58.527C-37.7467 20.1687 27.593 81.3107 31.0938 92.3557C34.5946 103.401 42.1499 112.588 52.2427 118.073C62.3355 123.558 74.2187 124.934 85.5063 121.926C96.7939 118.917 106.65 111.747 113.097 101.854C119.543 91.961 122.102 80.0782 120.259 68.5912C118.417 57.1042 112.31 46.8634 103.164 39.925C94.0188 32.9866 71.255 -40.1263 70.9534 31.1848C70.6518 102.496 48.6413 38.1711 40.8513 47.0445C40.8513 47.0445 24.8171 10.3567 53.2326 58.0061C81.6481 105.656 65.0327 48.7544 72.3876 47.9141C79.7426 47.0738 87.065 49.0606 92.8846 53.4758C98.7043 57.8909 102.59 64.4075 103.763 71.7171C104.935 79.0267 103.307 86.5881 99.2048 92.8832C95.1028 99.1784 88.8308 103.741 81.6481 105.656C74.4654 107.57 66.9038 106.694 60.4813 103.204C54.0589 99.7137 49.2513 93.8676 47.0236 86.8393C44.7959 79.811 45.3132 72.1208 48.4715 65.3129C48.4715 65.3129 104.485 96.8852 33.3691 58.527Z" fill="#D9D9D9"/>
<path d="M33.3691 58.527C-37.7467 20.1687 27.593 81.3107 31.0938 92.3557C34.5946 103.401 42.1499 112.588 52.2427 118.073C62.3355 123.558 74.2187 124.934 85.5063 121.926C96.7939 118.917 106.65 111.747 113.097 101.854C119.543 91.961 122.102 80.0782 120.259 68.5912C118.417 57.1042 112.31 46.8634 103.164 39.925C94.0188 32.9866 71.255 -40.1263 70.9534 31.1848C70.6518 102.496 48.6413 38.1711 40.8513 47.0445C40.8513 47.0445 24.8171 10.3567 53.2326 58.0061C81.6481 105.656 65.0327 48.7544 72.3876 47.9141C79.7426 47.0738 87.065 49.0606 92.8846 53.4758C98.7043 57.8909 102.59 64.4075 103.763 71.7171C104.935 79.0267 103.307 86.5881 99.2048 92.8832C95.1028 99.1784 88.8308 103.741 81.6481 105.656C74.4654 107.57 66.9038 106.694 60.4813 103.204C54.0589 99.7137 49.2513 93.8676 47.0236 86.8393C44.7959 79.811 45.3132 72.1208 48.4715 65.3129C48.4715 65.3129 104.485 96.8852 33.3691 58.527Z" fill="#D9D9D9"/>
<path d="M40.8513 47.0445L17.9435 57.0562L33.6927 93.0919L59.6385 63.5381L40.8513 47.0445ZM48.4715 65.3129L60.7471 43.5342L37.1786 30.2497L25.793 54.792L48.4715 65.3129ZM45.2372 36.5236C35.9737 31.527 28.2272 27.7613 21.8847 25.259C18.7153 24.0086 15.4222 22.8832 12.1529 22.1174C9.22774 21.4322 4.52168 20.5873 -0.791972 21.2974C-6.62245 22.0765 -15.7385 25.264 -21.1561 34.8779C-25.8771 43.2556 -24.7084 51.3393 -23.9454 54.8181C-22.433 61.7129 -18.5926 67.7082 -16.5762 70.7447C-11.7308 78.0416 -4.35985 86.7977 0.674449 92.9101C3.46281 96.2955 5.66309 99.0075 7.24172 101.12C8.02715 102.172 8.42276 102.763 8.56368 102.988C8.92096 103.56 8.01816 102.294 7.26226 99.9093L54.9254 84.8021C53.7319 81.0366 51.9083 77.9992 50.9586 76.4803C49.7925 74.6153 48.4948 72.7977 47.2975 71.195C44.9106 68.0001 41.9874 64.4229 39.2691 61.1224C33.29 53.8629 28.1144 47.66 25.0767 43.0855C24.4014 42.0686 24.0925 41.5124 24.0092 41.3505C23.8295 41.0012 24.4446 42.0586 24.8935 44.1053C25.239 45.6804 26.4752 52.1994 22.4037 59.4246C17.6356 67.8859 9.75094 70.333 5.83064 70.8569C3.94681 71.1086 2.53313 71.0252 1.84898 70.9602C1.47034 70.9242 1.189 70.8814 1.01935 70.8522C0.847907 70.8227 0.754909 70.8009 0.749456 70.7996C0.742808 70.7981 0.801074 70.8116 0.930362 70.8485C1.05887 70.8851 1.24286 70.9406 1.48666 71.0205C1.98103 71.1825 2.65615 71.4234 3.53483 71.7701C7.21742 73.2229 12.9857 75.9373 21.501 80.5303L45.2372 36.5236ZM7.26226 99.9093C12.6969 117.056 24.4792 131.438 40.3055 140.039L64.1798 96.1067C59.8206 93.7377 56.4923 89.7458 54.9254 84.8021L7.26226 99.9093ZM40.3055 140.039C56.1229 148.634 74.5937 150.707 91.9446 146.082L79.068 97.7688C73.8437 99.1612 68.5481 98.4806 64.1798 96.1067L40.3055 140.039ZM91.9446 146.082C109.271 141.464 124.264 130.508 134.042 115.502L92.1509 88.2055C89.0362 92.9856 84.3169 96.3698 79.068 97.7688L91.9446 146.082ZM134.042 115.502C143.822 100.494 147.785 82.3497 144.944 64.6323L95.5749 72.5501C96.4179 77.8067 95.264 83.4279 92.1509 88.2055L134.042 115.502ZM144.944 64.6323C142.098 46.8872 132.623 30.8933 118.275 20.0081L88.0544 59.842C91.9976 62.8335 94.7363 67.3213 95.5749 72.5501L144.944 64.6323ZM118.275 20.0081C121.559 22.5 122.407 24.8065 120.664 21.8708C119.623 20.117 118.31 17.6259 116.587 14.2463C113.624 8.43728 109.008 -1.00909 104.496 -7.72737C102.627 -10.511 98.4347 -16.5504 91.9188 -20.5392C88.2151 -22.8064 81.5196 -25.7768 73.0301 -24.5114C64.1159 -23.1827 58.1889 -17.9524 54.8914 -13.5944C49.5028 -6.47278 47.9918 2.29142 47.2872 7.3582C46.3981 13.7517 45.9934 21.6621 45.9536 31.0791L95.9532 31.2906C95.9887 22.8797 96.3614 17.4756 96.8106 14.2452C97.0339 12.6396 97.2106 12.0654 97.1757 12.1801C97.1502 12.2644 97.0121 12.7094 96.6968 13.3926C96.3902 14.0568 95.7929 15.2148 94.7637 16.5751C92.6259 19.4004 87.9636 23.815 80.4015 24.9422C73.2641 26.0061 68.0081 23.4483 65.8138 22.105C63.626 20.7657 62.5336 19.4853 62.5024 19.4501C62.3466 19.274 62.5091 19.4358 62.9888 20.15C65.3485 23.6634 68.1572 29.3393 72.0445 36.9619C73.7459 40.2981 75.7141 44.1002 77.6696 47.3942C78.6548 49.0539 79.8606 50.9676 81.243 52.8252C82.4289 54.4188 84.7073 57.3027 88.0544 59.842L118.275 20.0081ZM45.9536 31.0791C45.9181 39.4651 45.5601 45.1435 45.0923 48.825C44.5507 53.0873 44.0847 52.7298 45.2072 50.6455C45.8838 49.3892 47.7157 46.4323 51.5044 43.8973C55.765 41.0465 60.8156 39.8675 65.6144 40.3039C69.8343 40.6876 72.7111 42.2006 73.8947 42.9056C74.5694 43.3076 75.0421 43.6564 75.3044 43.8612C75.5723 44.0704 75.7182 44.2056 75.7359 44.2221C75.7439 44.2295 75.5187 44.0164 75.0144 43.4423C74.5244 42.8846 73.9405 42.1812 73.1977 41.2579C72.0275 39.8036 69.6768 36.7803 67.7308 34.5239C66.6481 33.2685 65.2712 31.7459 63.6888 30.247C62.2038 28.8403 59.8575 26.7974 56.774 25.035C53.8232 23.3486 48.276 20.8145 41.0419 21.2283C32.8407 21.6975 26.3184 25.7048 22.064 30.5508L59.6385 63.5381C56.3579 67.2749 50.9205 70.7449 43.8977 71.1467C37.842 71.4931 33.5667 69.3615 31.9639 68.4454C29.2267 66.8811 28.3058 65.3683 29.8667 67.1783C31.0844 68.5902 32.061 69.8913 34.2415 72.6015C35.9471 74.7212 38.613 77.9784 41.6851 80.8355C43.8302 82.8305 50.7301 89.1567 61.0863 90.0984C67.3264 90.6659 73.7541 89.1702 79.3097 85.4528C84.3936 82.0512 87.4387 77.6779 89.2291 74.3535C92.5793 68.1328 93.9432 61.0319 94.6934 55.1279C95.5175 48.6431 95.9132 40.7323 95.9532 31.2906L45.9536 31.0791ZM40.8513 47.0445C63.759 37.0327 63.7598 37.0346 63.7605 37.0362C63.7607 37.0366 63.7614 37.0381 63.7617 37.0389C63.7624 37.0404 63.7628 37.0414 63.763 37.0418C63.7634 37.0427 63.7629 37.0415 63.7614 37.0383C63.7586 37.0318 63.7522 37.0171 63.7425 36.9946C63.723 36.9497 63.6903 36.8742 63.6462 36.7716C63.5578 36.5657 63.4247 36.2543 63.2611 35.8655C62.9296 35.0775 62.4938 34.0222 62.0573 32.9116C61.6065 31.7646 61.231 30.7514 60.9791 30.0002C60.571 28.7833 60.9032 29.4898 61.1378 31.1423C61.2156 31.6901 61.3538 32.8188 61.3434 34.3027C61.3349 35.5055 61.2401 38.6451 59.8525 42.4084C58.3655 46.4412 54.45 53.3897 45.7308 56.8305C37.5676 60.052 30.5843 58.0117 27.6429 56.8497C24.5446 55.6258 22.487 54.0646 21.694 53.4357C20.7286 52.6699 20.0835 52.0233 19.8066 51.7372C19.2635 51.1761 19.11 50.931 19.4479 51.3731C20.9628 53.3551 24.628 58.85 31.7608 70.8108L74.7045 45.2015C67.6295 33.3376 62.6431 25.55 59.1725 21.0094C58.2641 19.8209 57.0934 18.3677 55.7326 16.9619C55.1474 16.3574 51.6436 12.5708 46.0127 10.3465C42.8472 9.09608 35.6825 7.04336 27.3767 10.3211C18.5149 13.8183 14.4955 20.8917 12.9398 25.1108C10.4935 31.7455 11.5673 37.6989 11.6344 38.1713C12.0973 41.4316 13.1018 44.4905 13.5737 45.8977C14.2019 47.7708 14.9142 49.6535 15.5225 51.2014C16.1452 52.7858 16.7402 54.2245 17.1745 55.2567C17.3938 55.778 17.5775 56.2082 17.71 56.5166C17.7764 56.671 17.8303 56.7957 17.8698 56.8867C17.8895 56.9322 17.9057 56.9694 17.9181 56.9978C17.9242 57.012 17.9295 57.024 17.9337 57.0338C17.9358 57.0386 17.9377 57.0429 17.9394 57.0467C17.9402 57.0485 17.9412 57.0509 17.9416 57.0519C17.9426 57.0541 17.9435 57.0562 40.8513 47.0445ZM31.7608 70.8108C35.5251 77.1232 38.9148 82.3397 42.0002 86.404C44.3627 89.516 48.9049 95.2586 55.4723 98.7391C59.2323 100.732 66.6791 103.56 75.6762 100.98C84.9128 98.3319 89.7792 91.7303 91.9178 87.7058C93.9837 83.8181 94.7541 80.1594 95.0964 78.1421C95.4819 75.8695 95.6271 73.7456 95.6899 72.0908C95.8132 68.838 95.6751 65.4182 95.5615 62.9091C95.429 59.9842 95.3159 58.0073 95.2841 56.1245C95.2471 53.9302 95.3942 54.1246 95.1438 55.3914C95.0361 55.9361 94.4749 58.8186 92.3201 62.1803C89.7787 66.1451 84.2286 71.7239 75.2254 72.7525L69.5498 23.0757C59.6273 24.2094 53.345 30.3311 50.2252 35.1985C47.4918 39.4628 46.5057 43.6074 46.0929 45.6953C45.2324 50.0486 45.2489 54.4541 45.2913 56.9678C45.3389 59.7932 45.5153 63.0216 45.6127 65.1717C45.7289 67.7376 45.7612 69.2625 45.7258 70.1968C45.7091 70.6355 45.6927 70.4157 45.8007 69.7794C45.8653 69.3983 46.2422 67.1081 47.7649 64.2426C49.3604 61.2403 53.5339 55.3147 61.8943 52.9174C70.0151 50.5887 76.4024 53.2438 78.8859 54.5599C80.2605 55.2884 81.2174 55.9971 81.7367 56.4118C82.2767 56.8429 82.5951 57.1584 82.6842 57.2483C82.8301 57.3956 82.5569 57.1359 81.8245 56.1711C80.3509 54.23 78.044 50.8014 74.7045 45.2015L31.7608 70.8108ZM75.2254 72.7525C76.2829 72.6317 77.1573 72.9244 77.7745 73.3927L107.995 33.5589C96.9726 25.1968 83.2023 21.5159 69.5498 23.0757L75.2254 72.7525ZM77.7745 73.3927C78.3918 73.861 78.9096 74.6246 79.0782 75.676L128.447 67.7582C126.271 54.1904 119.017 41.9208 107.995 33.5589L77.7745 73.3927ZM79.0782 75.676C79.2513 76.7551 79.028 78.0549 78.2591 79.2348L120.15 106.532C127.586 95.1213 130.619 81.2982 128.447 67.7582L79.0782 75.676ZM78.2591 79.2348C77.4886 80.4173 76.3538 81.1939 75.2099 81.4988L88.0864 129.812C101.308 126.289 112.717 117.939 120.15 106.532L78.2591 79.2348ZM75.2099 81.4988C74.0905 81.7971 73.1164 81.6171 72.4185 81.2379L48.5442 125.17C60.6911 131.771 74.8404 133.343 88.0864 129.812L75.2099 81.4988ZM72.4185 81.2379C71.7296 80.8635 71.149 80.2127 70.8551 79.2856L23.192 94.3929C27.3536 107.522 36.3883 118.564 48.5442 125.17L72.4185 81.2379ZM70.8551 79.2856C70.5527 78.3316 70.5694 77.0851 71.1499 75.8337L25.793 54.792C20.0569 67.1566 19.0391 81.2904 23.192 94.3929L70.8551 79.2856ZM48.4715 65.3129C36.1958 87.0915 36.1958 87.0914 36.196 87.0915C36.1963 87.0917 36.1967 87.092 36.1974 87.0923C36.1987 87.0931 36.2009 87.0943 36.204 87.0961C36.21 87.0995 36.2194 87.1048 36.2321 87.1119C36.2573 87.1261 36.2955 87.1477 36.3459 87.1761C36.4468 87.233 36.5966 87.3176 36.7898 87.4267C37.1762 87.6449 37.7357 87.9611 38.4238 88.3506C39.8011 89.1303 41.6879 90.2005 43.7295 91.3645C47.9306 93.7599 52.4123 96.3399 54.6343 97.6861C55.238 98.0519 55.3112 98.1078 55.1087 97.9718C55.0316 97.92 54.8309 97.7843 54.5596 97.5873C54.3774 97.455 53.7162 96.9744 52.9073 96.266C52.5254 95.9317 51.6894 95.1822 50.7382 94.1135C50.2531 93.5684 49.5038 92.6797 48.7047 91.4963C47.9905 90.4387 46.66 88.3081 45.6783 85.3207C44.7302 82.4354 43.4283 76.6385 45.6555 69.7913C48.1322 62.1768 53.5603 57.4877 58.3313 55.1253C62.4998 53.0613 66.2075 52.6775 67.9384 52.5751C69.9065 52.4586 71.4883 52.6012 72.3999 52.7114C75.3665 53.07 77.6054 53.9236 77.6464 53.9382C78.2594 54.1557 78.7049 54.3434 78.8547 54.4071C79.1856 54.5476 79.3373 54.6242 79.1688 54.5437C78.8851 54.408 78.2566 54.0971 77.1337 53.5216C72.6539 51.2256 63.0451 46.1288 45.2372 36.5236L21.501 80.5303C39.2511 90.1043 49.3091 95.4453 54.328 98.0177C55.5798 98.6593 56.6905 99.2174 57.5999 99.6522C58.028 99.8569 58.6398 100.144 59.3054 100.427C59.6225 100.562 60.204 100.803 60.9231 101.059C61.0702 101.111 63.3853 101.986 66.3994 102.35C66.7235 102.389 73.3474 103.484 80.5182 99.9331C85.2941 97.5684 90.7253 92.8759 93.2034 85.2572C95.432 78.4056 94.1297 72.6036 93.1796 69.7121C91.4789 64.5362 88.4779 61.3101 88.0875 60.8714C87.1188 59.7831 86.2588 59.0105 85.8464 58.6494C84.4441 57.4215 83.1076 56.5461 82.9814 56.4614C82.1454 55.9001 81.2179 55.3312 80.5432 54.9224C77.6513 53.1703 72.5743 50.2546 68.4953 47.9289C66.3968 46.7323 64.4631 45.6356 63.055 44.8385C62.3504 44.4396 61.7759 44.115 61.3765 43.8894C61.1768 43.7766 61.0208 43.6886 60.914 43.6284C60.8607 43.5983 60.8196 43.5751 60.7915 43.5593C60.7775 43.5514 60.7667 43.5453 60.7593 43.5411C60.7556 43.539 60.7527 43.5374 60.7507 43.5362C60.7497 43.5357 60.7488 43.5352 60.7483 43.5349C60.7476 43.5345 60.7471 43.5342 48.4715 65.3129Z" fill="#9A4DFF" fill-opacity="0.73" mask="url(#path-1-inside-1_99_7)"/>
</svg>
