<svg width="19" height="11" viewBox="0 0 19 11" fill="none" xmlns="http://www.w3.org/2000/svg">
<path fill-rule="evenodd" clip-rule="evenodd" d="M9.63253 6.58628C8.74751 6.58628 6.57393 6.58911 6.57393 6.58911V4.41089H12.0073C12.3857 7.04653 11.2442 11 6.57393 11C3.44941 11 0.916504 8.53753 0.916504 5.5C0.916504 2.46242 3.44941 0 6.57393 0C8.04005 0 9.37587 0.542158 10.3809 1.43152C9.6021 2.14656 9.35242 2.41914 9.14027 2.65073C9.02991 2.77121 8.92971 2.88059 8.77047 3.0354C8.1891 2.56801 7.5553 2.23267 6.57393 2.23267C4.71779 2.23267 3.2691 3.69551 3.2691 5.5C3.2691 7.30449 4.71779 8.76733 6.57393 8.76733C8.40806 8.76733 9.15327 7.99836 9.63253 6.58628ZM16.7685 2.61386V4.5198H18.729V5.88119H16.7685V7.84159H15.3682V5.88119H13.3516V4.5198H15.3682V2.61386H16.7685Z" fill="white"/>
</svg>
