<svg width="19" height="18" viewBox="0 0 19 18" fill="none" xmlns="http://www.w3.org/2000/svg">
<path fill-rule="evenodd" clip-rule="evenodd" d="M9.32277 0C6.90396 0 6.60066 0.0103605 5.65072 0.0541601C4.70275 0.0978521 4.05532 0.250008 3.48882 0.472506C2.90316 0.702472 2.40648 1.01021 1.91132 1.51055C1.41619 2.01092 1.11166 2.51283 0.884088 3.10466C0.663907 3.67712 0.513337 4.33137 0.4701 5.28931C0.426756 6.24926 0.416504 6.55575 0.416504 9.00002C0.416504 11.4443 0.426756 11.7507 0.4701 12.7107C0.513337 13.6686 0.663907 14.3229 0.884088 14.8953C1.11166 15.4872 1.41619 15.9891 1.91132 16.4895C2.40648 16.9898 2.90316 17.2975 3.48882 17.5275C4.05532 17.75 4.70275 17.9021 5.65072 17.9458C6.60066 17.9896 6.90396 18 9.32277 18C11.7415 18 12.0448 17.9896 12.9948 17.9458C13.9428 17.9021 14.5902 17.75 15.1567 17.5275C15.7424 17.2975 16.239 16.9898 16.7342 16.4895C17.2293 15.9891 17.5338 15.4872 17.7615 14.8953C17.9816 14.3229 18.1322 13.6686 18.1754 12.7107C18.2188 11.7507 18.229 11.4443 18.229 9.00002C18.229 6.55575 18.2188 6.24926 18.1754 5.28931C18.1322 4.33137 17.9816 3.67712 17.7615 3.10466C17.5338 2.51283 17.2293 2.01092 16.7342 1.51055C16.239 1.01021 15.7424 0.702472 15.1567 0.472506C14.5902 0.250008 13.9428 0.0978521 12.9948 0.0541601C12.0448 0.0103605 11.7415 0 9.32277 0ZM9.32277 1.62162C11.7008 1.62162 11.9825 1.6308 12.9216 1.6741C13.79 1.71411 14.2616 1.86073 14.5754 1.98398C14.9911 2.14725 15.2878 2.34227 15.5995 2.65723C15.9111 2.97215 16.1041 3.27196 16.2657 3.69206C16.3877 4.00919 16.5327 4.48574 16.5723 5.36323C16.6152 6.31224 16.6243 6.5969 16.6243 9.00002C16.6243 11.4031 16.6152 11.6878 16.5723 12.6368C16.5327 13.5143 16.3877 13.9908 16.2657 14.3079C16.1041 14.728 15.9111 15.0278 15.5995 15.3428C15.2878 15.6577 14.9911 15.8528 14.5754 16.016C14.2616 16.1393 13.79 16.2859 12.9216 16.3259C11.9827 16.3692 11.701 16.3784 9.32277 16.3784C6.94451 16.3784 6.66289 16.3692 5.72386 16.3259C4.85551 16.2859 4.38393 16.1393 4.0701 16.016C3.65438 15.8528 3.3577 15.6577 3.04606 15.3428C2.73442 15.0278 2.54139 14.728 2.37982 14.3079C2.25785 13.9908 2.11276 13.5143 2.07317 12.6368C2.03032 11.6878 2.02123 11.4031 2.02123 9.00002C2.02123 6.5969 2.03032 6.31224 2.07317 5.36323C2.11276 4.48574 2.25785 4.00919 2.37982 3.69206C2.54139 3.27196 2.73438 2.97215 3.04606 2.65723C3.3577 2.34227 3.65438 2.14725 4.0701 1.98398C4.38393 1.86073 4.85551 1.71411 5.72386 1.6741C6.66299 1.6308 6.94469 1.62162 9.32277 1.62162ZM4.74928 9.00002C4.74928 6.44753 6.79688 4.37838 9.32277 4.37838C11.8486 4.37838 13.8962 6.44753 13.8962 9.00002C13.8962 11.5525 11.8486 13.6216 9.32277 13.6216C6.79688 13.6216 4.74928 11.5525 4.74928 9.00002ZM9.32277 12C7.68315 12 6.354 10.6569 6.354 9.00002C6.354 7.34314 7.68315 6 9.32277 6C10.9624 6 12.2915 7.34314 12.2915 9.00002C12.2915 10.6569 10.9624 12 9.32277 12ZM14.0769 5.27577C14.6672 5.27577 15.1457 4.79226 15.1457 4.19579C15.1457 3.59931 14.6672 3.11577 14.0769 3.11577C13.4867 3.11577 13.0082 3.59931 13.0082 4.19579C13.0082 4.79226 13.4867 5.27577 14.0769 5.27577Z" fill="white"/>
</svg>
