<svg width="19" height="16" viewBox="0 0 19 16" fill="none" xmlns="http://www.w3.org/2000/svg">
<path fill-rule="evenodd" clip-rule="evenodd" d="M2.5132 3.77127H2.48807C1.2313 3.77127 0.416504 2.94039 0.416504 1.88717C0.416504 0.813472 1.25539 0 2.53729 0C3.81814 0 4.60571 0.811424 4.63084 1.8841C4.63084 2.93731 3.81814 3.77127 2.5132 3.77127ZM18.229 16H14.2922V10.3754C14.2922 8.90312 13.6764 7.89806 12.3222 7.89806C11.2864 7.89806 10.7104 8.57629 10.4423 9.22994C10.3538 9.43651 10.3554 9.71457 10.357 10.0012V10.0012C10.3573 10.0401 10.3575 10.0791 10.3575 10.1182V16H6.45734C6.45734 16 6.50761 6.0365 6.45734 5.13082H10.3575V6.83665C10.5879 6.0908 11.8342 5.02632 13.823 5.02632C16.2905 5.02632 18.229 6.58974 18.229 9.95633V16ZM4.3376 5.13082H0.865796V16H4.3376V5.13082Z" fill="white"/>
</svg>
