<svg width="19" height="18" viewBox="0 0 19 18" fill="none" xmlns="http://www.w3.org/2000/svg">
<path fill-rule="evenodd" clip-rule="evenodd" d="M16.5088 12.26L13.9952 11.97C13.3916 11.9 12.7978 12.11 12.3723 12.54L10.5515 14.38C7.75095 12.94 5.45512 10.63 4.03012 7.79001L5.86085 5.94001C6.28637 5.51001 6.49418 4.91001 6.42491 4.30001L6.13793 1.78001C6.01918 0.77001 5.17803 0.0100098 4.16866 0.0100098H2.45668C1.33845 0.0100098 0.408241 0.95001 0.477512 2.08001C1.00199 10.62 7.76085 17.44 16.202 17.97C17.3202 18.04 18.2504 17.1 18.2504 15.97V14.24C18.2603 13.23 17.5082 12.38 16.5088 12.26Z" fill="white"/>
</svg>
