<svg width="19" height="18" viewBox="0 0 19 18" fill="none" xmlns="http://www.w3.org/2000/svg">
<path d="M9.32328 0C4.40486 0 0.416504 4.02928 0.416504 9.00053C0.416504 12.6848 2.60968 15.8515 5.74863 17.2433C5.72349 16.6156 5.74444 15.8599 5.90259 15.1762C6.07436 14.4459 7.04841 10.2727 7.04841 10.2727C7.04841 10.2727 6.76457 9.69801 6.76457 8.84812C6.76457 7.51455 7.53019 6.51861 8.48224 6.51861C9.29186 6.51861 9.68357 7.13353 9.68357 7.87017C9.68357 8.69254 9.16408 9.92344 8.897 11.0633C8.67391 12.0191 9.37041 12.797 10.3026 12.797C11.9899 12.797 13.1263 10.6072 13.1263 8.012C13.1263 6.04022 11.8118 4.56377 9.42068 4.56377C6.71953 4.56377 5.03642 6.59905 5.03642 8.87246C5.03642 9.65779 5.26475 10.2103 5.62294 10.6379C5.78843 10.8358 5.81042 10.9141 5.75072 11.1406C5.70883 11.3046 5.61038 11.7047 5.56953 11.8624C5.50983 12.09 5.32759 12.1725 5.1244 12.0878C3.87909 11.5745 3.29989 10.1976 3.29989 8.64914C3.29989 6.09314 5.43337 3.02593 9.66472 3.02593C13.0655 3.02593 15.3037 5.5142 15.3037 8.18239C15.3037 11.7132 13.3619 14.3507 10.4974 14.3507C9.53694 14.3507 8.63202 13.8257 8.322 13.2298C8.322 13.2298 7.8046 15.3032 7.69568 15.7033C7.50715 16.3965 7.13743 17.0908 6.79913 17.6306C7.60037 17.8698 8.44663 18 9.32328 18C14.2417 18 18.229 13.9707 18.229 9.00053C18.229 4.02928 14.2417 0 9.32328 0" fill="white"/>
</svg>
