<svg width="25" height="24" viewBox="0 0 25 24" fill="none" xmlns="http://www.w3.org/2000/svg">
<path fill-rule="evenodd" clip-rule="evenodd" d="M21.729 21H18.3364C18.3364 12.9649 11.868 6.42836 3.9167 6.42836V3C13.7383 3 21.729 11.0749 21.729 21ZM3.9167 18.4286C3.9167 17.0085 5.05605 15.8571 6.46131 15.8571C7.86658 15.8571 9.00593 17.0085 9.00593 18.4286C9.00593 19.8486 7.86658 21 6.46131 21C5.05605 21 3.9167 19.8486 3.9167 18.4286ZM12.399 21H15.7916C15.7916 14.3831 10.4644 8.99979 3.9165 8.99979V12.4288C8.59351 12.4288 12.399 16.2737 12.399 21Z" fill="white"/>
</svg>
