<svg width="21" height="18" viewBox="0 0 21 18" fill="none" xmlns="http://www.w3.org/2000/svg">
<path fill-rule="evenodd" clip-rule="evenodd" d="M5.87492 0H15.7708C16.315 0 16.7603 0.45 16.7603 1V3C16.7603 3.55 16.315 4 15.7708 4H5.87492C5.33065 4 4.88534 3.55 4.88534 3V1C4.88534 0.45 5.33065 0 5.87492 0ZM3.89575 5H17.7499C19.3926 5 20.7187 6.34 20.7187 8V12C20.7187 13.1 19.828 14 18.7395 14H16.7603V16C16.7603 17.1 15.8697 18 14.7812 18H6.8645C5.77596 18 4.88534 17.1 4.88534 16V14H2.90617C1.81763 14 0.927002 13.1 0.927002 12V8C0.927002 6.34 2.25304 5 3.89575 5ZM7.85409 16H13.7916C14.3359 16 14.7812 15.55 14.7812 15V11H6.8645V15C6.8645 15.55 7.30981 16 7.85409 16ZM17.7499 9C17.2056 9 16.7603 8.55 16.7603 8C16.7603 7.45 17.2056 7 17.7499 7C18.2942 7 18.7395 7.45 18.7395 8C18.7395 8.55 18.2942 9 17.7499 9Z" fill="white"/>
</svg>
