<svg width="19" height="15" viewBox="0 0 19 15" fill="none" xmlns="http://www.w3.org/2000/svg">
<path d="M18.729 1.77573C18.0745 2.07692 17.3698 2.28061 16.6306 2.37161C17.3855 1.90358 17.9647 1.16143 18.2376 0.277356C17.5308 0.710726 16.7498 1.026 15.9155 1.19502C15.2506 0.459372 14.3002 0 13.2484 0C11.2316 0 9.59535 1.69556 9.59535 3.78657C9.59535 4.08342 9.62672 4.37161 9.68945 4.64897C6.65222 4.49079 3.96001 2.98483 2.15649 0.691224C1.84179 1.25244 1.66196 1.90358 1.66196 2.59697C1.66196 3.91008 2.30704 5.06934 3.28774 5.74865C2.6897 5.73023 2.12512 5.55796 1.63164 5.27627V5.32286C1.63164 7.15818 2.89149 8.68906 4.56432 9.03575C4.25798 9.12459 3.93492 9.16901 3.6014 9.16901C3.36615 9.16901 3.13614 9.14626 2.91344 9.10184C3.3787 10.6056 4.72742 11.701 6.32706 11.7302C5.07662 12.7465 3.49998 13.3521 1.78847 13.3521C1.49363 13.3521 1.20193 13.3348 0.916504 13.3001C2.53392 14.3727 4.45558 15 6.51839 15C13.2411 15 16.9161 9.23077 16.9161 4.22644C16.9161 4.06175 16.9129 3.89707 16.9067 3.73564C17.6208 3.20152 18.2407 2.53521 18.729 1.77573" fill="white"/>
</svg>
