<svg width="19" height="13" viewBox="0 0 19 13" fill="none" xmlns="http://www.w3.org/2000/svg">
<path fill-rule="evenodd" clip-rule="evenodd" d="M17.8428 0.969787C18.3766 1.53063 18.5509 2.80424 18.5509 2.80424C18.5509 2.80424 18.729 4.30022 18.729 5.79562V7.19803C18.729 8.69401 18.5509 10.1894 18.5509 10.1894C18.5509 10.1894 18.3766 11.463 17.8428 12.0239C17.2325 12.6873 16.5558 12.7559 16.1733 12.7946C16.1312 12.7989 16.0927 12.8028 16.0582 12.8071C13.5656 12.9942 9.82275 13 9.82275 13C9.82275 13 5.1915 12.9561 3.7665 12.814C3.69899 12.8009 3.61714 12.7907 3.52446 12.7792C3.07308 12.723 2.36461 12.6348 1.80212 12.0239C1.2683 11.463 1.09463 10.1894 1.09463 10.1894C1.09463 10.1894 0.916504 8.69401 0.916504 7.19803V5.79562C0.916504 4.30022 1.09463 2.80424 1.09463 2.80424C1.09463 2.80424 1.2683 1.53063 1.80212 0.969787C2.41379 0.305384 3.09116 0.237575 3.4737 0.19928C3.51517 0.195128 3.55318 0.191323 3.58727 0.187142C6.0799 0 9.81886 0 9.81886 0H9.82665C9.82665 0 13.5656 0 16.0582 0.187142C16.0923 0.191329 16.1304 0.195139 16.1719 0.199298C16.5541 0.237597 17.2318 0.305492 17.8428 0.969787ZM7.98306 3.70414L7.98361 8.89732L12.7958 6.30968L7.98306 3.70414Z" fill="white"/>
</svg>
